<?xml version="1.0" encoding="utf-8"?>
<!-- Generator: Adobe Illustrator 19.2.0, SVG Export Plug-In . SVG Version: 6.00 Build 0)  -->
<!DOCTYPE svg PUBLIC "-//W3C//DTD SVG 1.1//EN" "http://www.w3.org/Graphics/SVG/1.1/DTD/svg11.dtd" [
    <!ENTITY st0 "fill:#0098D1;">
]>
<svg version="1.1" id="Layer_1" xmlns="http://www.w3.org/2000/svg" xmlns:xlink="http://www.w3.org/1999/xlink" x="0px" y="0px"
     viewBox="0 0 110 110" style="enable-background:new 0 0 110 110;" xml:space="preserve">
<g id="Layer_2">
</g>
<path style="&st0;" d="M64.3,0.8C61.3,0.3,58.2,0,55,0C40.5,0,27.4,5.7,17.7,14.7h51.5c0.8-1.2,0.9-1.5,1.7-2.9L64.3,0.8z"/>
<path style="&st0;" d="M12.8,19.8c-2,2.4-3.8,4.9-5.3,7.6c-7.3,12.7-9,26.7-6.1,39.8l25.8-44.5c-0.8-1.2-0.9-1.5-1.7-2.9L12.8,19.8z
    "/>
<path style="&st0;" d="M106.6,36c-1.1-2.9-2.4-5.8-4-8.5C95.4,15,84,6.4,71.2,2.5L97,47c1.5,0,1.8,0,3.4,0L106.6,36z"/>
<path style="&st0;" d="M108.5,42.9L82.9,87.4c0.8,1.2,0.9,1.5,1.7,2.9h12.8c2-2.4,3.8-4.9,5.3-7.6C109.9,70,111.6,55.8,108.5,42.9z"
    />
<path style="&st0;" d="M92.4,95.3L92.4,95.3L92.4,95.3z"/>
<path style="&st0;" d="M45.6,109.2c3,0.5,6.1,0.8,9.3,0.8c14.5,0,27.6-5.6,37.4-14.6H40.7c-0.8,1.2-0.9,1.5-1.7,2.9L45.6,109.2z"/>
<path style="&st0;" d="M3.3,74c1.1,2.9,2.4,5.8,4,8.5c7.3,12.5,18.6,21.2,31.4,25.2L13.1,63c-1.5,0-1.8,0-3.4,0L3.3,74z"/>
<path style="&st0;" d="M81.7,61.2L79.9,60c-1.1-0.8-1.8-2.3-1.8-3.5v-2.9c0-1.2,0.8-2.7,1.8-3.5l1.8-1.2l1.5-1.1
    c-0.6-2.7-1.7-5.2-3.2-7.6l-1.8,0.3l-2.1,0.3c-1.2,0.2-2.9-0.3-3.7-1.2l-2-2c-0.9-0.9-1.4-2.6-1.2-3.7l0.3-2.1l0.3-1.8
    c-2.3-1.4-4.9-2.4-7.6-3.2l-1.1,1.5l-1.2,1.8c-0.6,0.9-2.3,1.8-3.5,1.8h-2.9c-1.2,0-2.7-0.8-3.5-1.8l-1.2-1.8l-1.1-1.5
    c-2.7,0.8-5.2,1.8-7.6,3.2l0.3,1.8l0.3,2.1c0.2,1.2-0.3,2.9-1.2,3.7l-1.8,2.1c-1,0.9-2.7,1.3-3.7,1.2l-2.1-0.5L30,40.1
    c-1.4,2.3-2.4,4.9-3.2,7.6l1.5,1.1l1.8,1.2c0.9,0.8,1.8,2.3,1.8,3.5v2.9c0,1.2-0.8,2.7-1.8,3.5l-1.8,1.2l-1.5,1.1
    c0.8,2.7,1.8,5.2,3.2,7.6l1.8-0.3l2.1-0.3c1.2-0.2,2.9,0.3,3.7,1.2l2,2.1c0.9,0.9,1.4,2.6,1.2,3.7l-0.3,2.1l-0.3,1.8
    c2.3,1.4,4.9,2.4,7.6,3.2l1.1-1.5l1.2-1.8c0.8-1.1,2.3-1.8,3.5-1.8h2.9c1.2,0,2.7,0.8,3.5,1.8l1.2,1.8l1.1,1.5
    c2.7-0.8,5.3-1.8,7.6-3.2l-0.3-1.8l-0.3-2.1c-0.2-1.2,0.3-2.9,1.2-3.7l2.1-2c0.9-0.9,2.6-1.4,3.7-1.2l2.1,0.3l1.8,0.3
    c1.4-2.3,2.4-4.9,3.2-7.6L81.7,61.2z M55,66.1c-6.1,0-11.1-5-11.1-11.1s5-11.1,11.1-11.1s11.1,5,11.1,11.1S61.1,66.1,55,66.1z"/>
</svg>